/* XPM */
static char *audacious[] = {
/* columns rows colors chars-per-pixel */
"48 48 114 2 ",
"   c black",
".  c #010101",
"X  c #020202",
"o  c gray1",
"O  c gray2",
"+  c #070707",
"@  c gray3",
"#  c #090909",
"$  c #0C0C0C",
"%  c #0E0E0E",
"&  c #101010",
"*  c #111111",
"=  c gray7",
"-  c #131313",
";  c gray8",
":  c #161616",
">  c #191919",
",  c gray10",
"<  c #1B1B1B",
"1  c gray11",
"2  c #1D1D1D",
"3  c #1E1E1E",
"4  c gray12",
"5  c #202020",
"6  c gray13",
"7  c gray14",
"8  c #282828",
"9  c gray17",
"0  c #2D2D2D",
"q  c #313131",
"w  c #343434",
"e  c #353535",
"r  c #373737",
"t  c #393939",
"y  c #3A3A3A",
"u  c gray23",
"i  c #3C3C3C",
"p  c gray25",
"a  c #414141",
"s  c #464646",
"d  c gray28",
"f  c #484848",
"g  c #494949",
"h  c gray30",
"j  c #4E4E4E",
"k  c #505050",
"l  c #535353",
"z  c gray35",
"x  c #5A5A5A",
"c  c #5B5B5B",
"v  c gray36",
"b  c #5D5D5D",
"n  c gray37",
"m  c #646464",
"M  c #6D6D6D",
"N  c gray45",
"B  c gray46",
"V  c #777777",
"C  c #7B7B7B",
"Z  c #808080",
"A  c #818181",
"S  c gray51",
"D  c #838383",
"F  c gray52",
"G  c gray53",
"H  c #898989",
"J  c #8B8B8B",
"K  c gray55",
"L  c #8D8D8D",
"P  c #8E8E8E",
"I  c #909090",
"U  c #929292",
"Y  c #939393",
"T  c gray59",
"R  c #9A9A9A",
"E  c gray62",
"W  c gray64",
"Q  c #A4A4A4",
"!  c #A5A5A5",
"~  c gray65",
"^  c gray66",
"/  c #A9A9A9",
"(  c #AAAAAA",
")  c gray67",
"_  c #ACACAC",
"`  c gray68",
"'  c #AEAEAE",
"]  c #AFAFAF",
"[  c gray69",
"{  c #B1B1B1",
"}  c #B2B2B2",
"|  c #B4B4B4",
" . c gray71",
".. c #B6B6B6",
"X. c #B7B7B7",
"o. c gray72",
"O. c #B9B9B9",
"+. c #BBBBBB",
"@. c #BCBCBC",
"#. c gray74",
"$. c gray76",
"%. c gray79",
"&. c #CACACA",
"*. c #CBCBCB",
"=. c gray80",
"-. c gray81",
";. c #D0D0D0",
":. c LightGray",
">. c gray83",
",. c #D5D5D5",
"<. c gray84",
"1. c #D8D8D8",
"2. c gray85",
"3. c None",
/* pixels */
"3.3.3.3.3.3.3.3.3.3.3.3.3.3.3.3.3.3.3.                    3.3.3.3.3.3.3.3.3.3.3.3.3.3.3.3.3.3.3.",
"3.3.3.3.3.3.3.3.3.3.3.3.3.3.3.3.                                3.3.3.3.3.3.3.3.3.3.3.3.3.3.3.3.",
"3.3.3.3.3.3.3.3.3.3.3.3.3.                                            3.3.3.3.3.3.3.3.3.3.3.3.3.",
"3.3.3.3.3.3.3.3.3.3.3.3.                                                3.3.3.3.3.3.3.3.3.3.3.3.",
"3.3.3.3.3.3.3.3.3.3.                                                        3.3.3.3.3.3.3.3.3.3.",
"3.3.3.3.3.3.3.3.3.                                                            3.3.3.3.3.3.3.3.3.",
"3.3.3.3.3.3.3.3.                    5 n I { &.,.,.&.{ L x 1                     3.3.3.3.3.3.3.3.",
"3.3.3.3.3.3.3.                  j ) 2.2.2.2.2.2.2.2.2.2.2.2.Q f                   3.3.3.3.3.3.3.",
"3.3.3.3.3.3.                i O.2.2.2.2.2.2.2.2.2.2.2.2.2.2.2.2...y                 3.3.3.3.3.3.",
"3.3.3.3.3.              # F 2.2.2.2.2.2.2.2.2.2.2.2.2.2.2.2.2.2.2.2.S O               3.3.3.3.3.",
"3.3.3.3.              : ' 2.2.2.2.2.2.2.2.2.2.2.2.2.2.2.2.2.2.2.2.2.2.' :               3.3.3.3.",
"3.3.3.3.            = O.2.2.2.2.2.2.2.2.2.2.2.2.2.2.2.2.2.2.2.2.2.2.2.2...=             3.3.3.3.",
"3.3.3.            # ) 2.2.2.2.2.2.2.2.2.2.2.2.2.2.2.2.2.2.2.2.2.2.2.2.2.,.) #             3.3.3.",
"3.3.              S 2.2.2.2.2.2.2.2.2.2.2.2.;.@.@.&.2.2.2.2.2.2.2.2.2.2.2.2.S               3.3.",
"3.3.            y 2.2.2.2.2.2.2.2.2.L l a 0         : j E 2.2.2.2.2.2.2.2.2.2.y             3.3.",
"3.3.            ..2.2.2.2.2.2.2.2.l                       q ..2.2.2.2.2.2.2.2...            3.3.",
"3.            f 2.2.2.2.2.2.2.2.R                           % ' 2.2.2.2.2.2.2.2.s             3.",
"3.            Q 2.2.2.2.2.2.2.2.I                             8 2.2.2.2.2.2.2.2.Q             3.",
"3.          5 2.2.2.2.2.2.2.2.2.,.l % 1 9 9 0 1                 ) ,.2.2.2.2.2.2.2.1           3.",
"            x 2.2.2.2.2.2.2.2.2.2.2.2.2.2.2.2.2.s               V 2.2.2.2.2.2.2.2.x             ",
"            L 2.2.2.2.2.2.2.2.2.2.2.2.2.2.;.I M =               f 2.2.2.2.2.2.2.2.L             ",
"            { 2.2.2.2.2.2.2.2.2.2.2.) n e #                     8 2.2.2.2.2.2.2.2.'             ",
"            =.2.2.2.2.2.2.2.2.2.2.V                             # 2.2.2.2.2.2.2.2.&.            ",
"            ,.2.2.2.2.2.2.2.2.2.x                               # 2.2.2.2.2.2.2.2.,.            ",
"            ,.2.2.2.2.2.2.2.2.F                                 i 2.2.2.2.2.2.2.2.;.            ",
"            &.2.2.2.2.2.2.2.;.%             s ' ' q             x 2.2.2.2.2.2.2.2.&.            ",
"            { 2.2.2.2.2.2.2.&.              L 2.2.m             N 2.2.2.2.2.2.2.2.{             ",
"            I 2.2.2.2.2.2.2.=.              e ' W =             L 2.2.2.2.2.2.2.2.L             ",
"            n 2.2.2.2.2.2.2.,.%                                 C 2.2.2.2.2.2.2.2.n             ",
"3.          5 2.2.2.2.2.2.2.2.l                                 s 2.2.2.2.2.2.2.2.1           3.",
"3.            ) 2.2.2.2.2.2.2.{ O                               n 2.2.2.2.2.2.2.)             3.",
"3.            j 2.2.2.2.2.2.2.2.T %               > =         = @.2.2.2.2.2.2.,.j             3.",
"3.3.            O.2.2.2.2.2.2.2.2.@.i       q F &.2.,.J e > f @.2.2.2.2.2.2.2...            3.3.",
"3.3.            i 2.2.2.2.2.2.2.2.2.2.$.L Q 2.2.2.2.2.2.2.2.2.2.2.2.2.2.2.2.2.y             3.3.",
"3.3.              S 2.2.2.2.2.2.2.2.2.2.2.2.2.2.2.2.2.2.2.2.2.2.2.2.2.2.2.2.S               3.3.",
"3.3.3.            # ) 2.2.2.2.2.2.2.2.2.2.2.2.2.2.2.2.2.2.2.2.2.2.2.2.2.2.) O             3.3.3.",
"3.3.3.3.            = ..2.2.2.2.2.2.2.2.2.2.2.2.2.2.2.2.2.2.2.2.2.2.2.2.O.=             3.3.3.3.",
"3.3.3.3.              : ' 2.2.2.2.2.2.2.2.2.2.2.2.2.2.2.2.2.2.2.2.2.2.' =               3.3.3.3.",
"3.3.3.3.3.              # S 2.2.2.2.2.2.2.2.2.2.2.2.2.2.2.2.2.2.2.2.S O               3.3.3.3.3.",
"3.3.3.3.3.3.                y ..2.2.2.2.2.2.2.2.2.2.2.2.2.2.2.2...e                 3.3.3.3.3.3.",
"3.3.3.3.3.3.3.                  j ) 2.2.2.2.2.2.2.2.2.2.2.2.Q f O                 3.3.3.3.3.3.3.",
"3.3.3.3.3.3.3.3.                    1 n L ' &.,.;.&.' L x 1                     3.3.3.3.3.3.3.3.",
"3.3.3.3.3.3.3.3.3.                                                            3.3.3.3.3.3.3.3.3.",
"3.3.3.3.3.3.3.3.3.3.                                                        3.3.3.3.3.3.3.3.3.3.",
"3.3.3.3.3.3.3.3.3.3.3.3.                                                3.3.3.3.3.3.3.3.3.3.3.3.",
"3.3.3.3.3.3.3.3.3.3.3.3.3.                                            3.3.3.3.3.3.3.3.3.3.3.3.3.",
"3.3.3.3.3.3.3.3.3.3.3.3.3.3.3.3.                                3.3.3.3.3.3.3.3.3.3.3.3.3.3.3.3.",
"3.3.3.3.3.3.3.3.3.3.3.3.3.3.3.3.3.3.3.                    3.3.3.3.3.3.3.3.3.3.3.3.3.3.3.3.3.3.3."
};
