/* XPM */
static char *ntop[] = {
/* columns rows colors chars-per-pixel */
"59 48 256 2 ",
"   c black",
".  c #001000",
"X  c #101010",
"o  c #000021",
"O  c #003031",
"+  c #210000",
"@  c #313000",
"#  c #212021",
"$  c #313031",
"%  c #313063",
"&  c gray80",
"*  c #633000",
"=  c #636100",
"-  c #424142",
";  c #525152",
":  c #636163",
">  c #737173",
",  c #6361CE",
"<  c #639E9C",
"1  c #63CFCE",
"2  c #9C3000",
"3  c #9C6100",
"4  c #9C6131",
"5  c #CE3000",
"6  c #CE6100",
"7  c #9C9E00",
"8  c #9CCF63",
"9  c #CE9E00",
"0  c #FF9E00",
"q  c #FFCF00",
"w  c yellow",
"e  c #8C8E8C",
"r  c None",
"t  c gray80",
"y  c #9CCFCE",
"u  c #9CFFFF",
"i  c #CECFCE",
"p  c #DEDFDE",
"a  c #CECFFF",
"s  c #CEFFFF",
"d  c #EFEFEF",
"f  c white",
"g  c black",
"h  c black",
"j  c black",
"k  c black",
"l  c black",
"z  c black",
"x  c black",
"c  c black",
"v  c black",
"b  c black",
"n  c black",
"m  c black",
"M  c black",
"N  c black",
"B  c black",
"V  c black",
"C  c black",
"Z  c black",
"A  c black",
"S  c black",
"D  c black",
"F  c black",
"G  c black",
"H  c black",
"J  c black",
"K  c black",
"L  c black",
"P  c black",
"I  c black",
"U  c black",
"Y  c black",
"T  c black",
"R  c black",
"E  c black",
"W  c black",
"Q  c black",
"!  c black",
"~  c black",
"^  c black",
"/  c black",
"(  c black",
")  c black",
"_  c black",
"`  c black",
"'  c black",
"]  c black",
"[  c black",
"{  c black",
"}  c black",
"|  c black",
" . c black",
".. c black",
"X. c black",
"o. c black",
"O. c black",
"+. c black",
"@. c black",
"#. c black",
"$. c black",
"%. c black",
"&. c black",
"*. c black",
"=. c black",
"-. c black",
";. c black",
":. c black",
">. c black",
",. c black",
"<. c black",
"1. c black",
"2. c black",
"3. c black",
"4. c black",
"5. c black",
"6. c black",
"7. c black",
"8. c black",
"9. c black",
"0. c black",
"q. c black",
"w. c black",
"e. c black",
"r. c black",
"t. c black",
"y. c black",
"u. c black",
"i. c black",
"p. c black",
"a. c black",
"s. c black",
"d. c black",
"f. c black",
"g. c black",
"h. c black",
"j. c black",
"k. c black",
"l. c black",
"z. c black",
"x. c black",
"c. c black",
"v. c black",
"b. c black",
"n. c black",
"m. c black",
"M. c black",
"N. c black",
"B. c black",
"V. c black",
"C. c black",
"Z. c black",
"A. c black",
"S. c black",
"D. c black",
"F. c black",
"G. c black",
"H. c black",
"J. c black",
"K. c black",
"L. c black",
"P. c black",
"I. c black",
"U. c black",
"Y. c black",
"T. c black",
"R. c black",
"E. c black",
"W. c black",
"Q. c black",
"!. c black",
"~. c black",
"^. c black",
"/. c black",
"(. c black",
"). c black",
"_. c black",
"`. c black",
"'. c black",
"]. c black",
"[. c black",
"{. c black",
"}. c black",
"|. c black",
" X c black",
".X c black",
"XX c black",
"oX c black",
"OX c black",
"+X c black",
"@X c black",
"#X c black",
"$X c black",
"%X c black",
"&X c black",
"*X c black",
"=X c black",
"-X c black",
";X c black",
":X c black",
">X c black",
",X c black",
"<X c black",
"1X c black",
"2X c black",
"3X c black",
"4X c black",
"5X c black",
"6X c black",
"7X c black",
"8X c black",
"9X c black",
"0X c black",
"qX c black",
"wX c black",
"eX c black",
"rX c black",
"tX c black",
"yX c black",
"uX c black",
"iX c black",
"pX c black",
"aX c black",
"sX c black",
"dX c black",
"fX c black",
"gX c black",
"hX c black",
"jX c black",
"kX c black",
"lX c black",
"zX c black",
"xX c black",
"cX c black",
"vX c black",
"bX c black",
"nX c black",
"mX c black",
"MX c black",
"NX c black",
"BX c black",
"VX c black",
"CX c black",
"ZX c black",
"AX c black",
"SX c black",
"DX c black",
"FX c black",
"GX c black",
"HX c black",
"JX c black",
"KX c black",
"LX c black",
"PX c black",
"IX c black",
"UX c black",
/* pixels */
"f f f f f f f f f f r r r r r r r r r r r r r r r r r r r r r r r r r r r r r r r r r r r r r r r r r r r r r r r r r ",
"f f f f f f f f f r r r r r r r r r r r r r r r r r r r r r r r r r r r r r r r r r r r r r r r r r r r r r r r r r r ",
"f f f f f f f r r r r r r r r r r r r r r r r r r r r r r r r r r r r r r r r r r r r r r r r r r r r r r r r r r r r ",
"f f f f f f r r r r r r r r r r r r r r r r r r r r r r r r r r r r r r r r r r r r r r r r r r r r r r r r r r r r r ",
"f f f f f r r r r r r r r r r r r r r r r r r r r r r r r r r r r r r r r r r r r r r r r r r r r r r r r r r r r r r ",
"f f f f r r r r r r r r r r r r r r r r r r r r r r r r r r r r r r r r r r r r r r r r r r r r r r r r r r r r r r r ",
"f f f r r r r r r r r r r r r r r r r r r r r r r r r r r r r r r r r r r r r r r r r r r r r r r r r r r r r r r r r ",
"f f r r r r r r r r r r r r r r r r r r r r r r r r r r r r r r r r r r r r r r r r r r r r r r r r r r r r r r r r r ",
"f f r r r r r r r r r r r r r r r r r r r r r r r r r r r r r r r r r r r r r r r r r r r r r r r r r r r r r r r r r ",
"f r r r r r r r r r r r r r r r r r r r r r r r r r r r r r r r r r r r r r r r r r r r r r r r r r r r r r r r r r r ",
"r r r r r r r r r r r r r r r r r r r r r r r r r r r r r r r r r r r r r r r r r r r r r r r r r r r r r r r r r r r ",
"r r r r r r r r r r r r r r r r r r r r r r r r r r r r r r r r r r r r r r r r r r r r r r r r r r r r r r r r r r r ",
"r r r r r r r r r r r r r r r r r r r r r r r r r r r r r > ; #   # ; > r r r r r r r r r r r r r r r r r r r r r r r ",
"r r r r r r r r r r e r e r r r r r r r r r r r r r r > - ; t u s s < > - > r r r r r r r r r r r r r r e r e r r r r ",
"r r r r r r r r r r > r > r r r r r r r r r r r r r > - r s s s s s s s t - > r r r r r r r r r r r r r > r > r r r r ",
"r r r r r r r r r r ; r ; r r r r r r r r r r r r > - t u s s s s s s s u u & > r r r r r r r r r r r r ; r ; r r r r ",
"r r r r r r r r r r   f   r r r r r r r r r r r r -     #       #       #     - - r r r r r r r r r r r   f   r r r r ",
"r r r r r r r r r r   f   r r r r r r r r r r r > - d d d d d d d d d d d d d d > r r r r r r r r r r r   f   r r r r ",
"r r r r r r r r r r   p ;           r r r r r r ; d d d     d d d   d d     d d ; r r r r r r           ; p   r r r r ",
"r r r r r r r r r r r   i f   f f f         #   - d d   d d   d d   d   d d   d -     #       f f f   f i   r r r r r ",
"r r r r r r r r r r r r       a a a   d f f f d - d d   d d   d d   d   d d   d O f f f d d   a a a       r r r r r r ",
"r r r r r r r r r r r   i f   , , ,         #   - d d   d d   d d   d   d d   d #             , , ,   f i   r r r r r ",
"r r r r r r r r r r   p ;           r r r r r r - d d d     d d d   d d     d d * r r r r r r           ; p   r r r r ",
"r r r r r r r r r r   f   r r r r r r r r r r r - d d d d d d d d d d d d d d d - r r r r r r r r r r r   f   r r r r ",
"r r r r r r r r r r   f   r r r r r r r r r r r > -     #       #       #     - - > r r r r r r r r r r   f   r r r r ",
"r r r r r r r r r r ; r ; r r r r r r r r r r r r @ > s s s u 1 y y y y y y > # $ $ > r r r r r r r r r ; r ; r r r r ",
"r r r r r r r r r r > r > r r r r r r r r r r r r e @ 8 y u y y y y y y y < = # $ $ - r r r r r r r r r > r > r r r r ",
"r r r r r r r r r r e r e r r r r r r r r r r r r X w 3 $ < y y y y y y & = = - $ $ $ r r r r r r r r r e r e r r r r ",
"r r r r r r r r r r r r r r r r r r r r r r X X X w 6 X = 4 - ; O % ; 4 7 3 - $ $ $ - r r r r r r r r r r r r r r r r ",
"r r r r r r r r r r r r r r r r r r r r r X 5 # w 6 X ; + @ 7 9 q 9 7 = - - $ $ $ $ > r r r r r r r r r r r r r r r r ",
"r r r r r r r r r r r r r r r r r r r r X 5 0 5 6 o : f : $ @ X . # # $ $ $ $ $ $ - r r r r r r r r r r r r r r r r r ",
"r r r r r r r r r r r r r r r r r r r X 5 0 5 2 * X f f e : ; $ $ $ $ $ $ $ $ $ - > r r r r r r r r r r r r r r r r r ",
"r r r r r r r r r r r r r r r r r r X 5 0 5 2 * @ X f : ; $ $ $ $ $ $ $ $ $ $ - > r r r r r r r r r r r r r r r r r r ",
"r r r r r r r r r r r r r r r r r X 5 0 5 2 * @ X : ; $ $ $ ; : - - $ $ $ - > r r r r r r r r r r r r r r r r r r r r ",
"r r r r r r r r r r r r r r r r X 5 0 5 2 * @ X $ $ $ $ $ ; r r r e > : > e r r r r r r r r r r r r r r r r r r r r r ",
"r r r r r r r r r r r r r r r X 5 0 5 2 * @ X $ $ $ - ; e r r r r r r r r r r r r r r r r r r r r r r r r r r r r r r ",
"r r r r r r r r r r r r r r X 5 0 5 2 * @ X $ $ $ - ; r r r r r r r r r r r r r r r r r r r r r r r r r r r r r r r r ",
"r r r r r r r r r r r r r X 5 0 5 2 * @ X $ $ $ $ ; r r r r r r r r r r r r r r r r r r r r r r r r r r r r r r r r r ",
"r r r r r r r r r r r r r X 0 5 2 * @ X $ $ $ $ ; r r r r r r r r r r r r r r r r r r r r r r r r r r r r r r r r r r ",
"r r r r r r r r r r r r r r X 2 * @ # $ $ $ ; > r r r r r r r r r r r r r r r r r r r r r r r r r r r r r r r r r r r ",
"r r r r r r r r r r r r r r r X X X - - ; > r r r r r r r r r r r r r r r r r r r r r r r r r r r r r r r r r r r r r ",
"r r r r r r r r r r r r r r r r r e ; > r r r r r r r r r r r r r r r r r r r r r r r r r r r r r r r r r r r r r r r ",
"r r r r r r r r r r r r r r r r r r r r r r r r r r r r r r r r r r r r r r r r r r r r r r r r r r r r r r r r r r r ",
"r r r r r r r r r r r r r r r r r r r r r r r r r r r r r r r r r r r r r r r r r r r r r r r r r r r r r r r r r r r ",
"r r r r r r r r r r r r r r r r r r r r r r r r r r r r r r r r r r r r r r r r r r r r r r r r r r r r r r r r r r r ",
"r r r r r r r r r r r r r r r r r r r r r r r r r r r r r r r r r r r r r r r r r r r r r r r r r r r r r r r r r r r ",
"r r r r r r r r r r r r r r r r r r r r r r r r r r r r r r r r r r r r r r r r r r r r r r r r r r r r r r r r r r r ",
"r r r r r r r r r r r r r r r r r r r r r r r r r r r r r r r r r r r r r r r r r r r r r r r r r r r r r r r r r r r "
};
